PathFileType  4	(X/Y/Z) C:\Users\antoi\Documents\MyRepositories\mobilecap\ResultsAnalysis
DataRate	CameraRate	NumFrames	NumMarkers	Units	OrigDataRate	OrigDataStartFrame	OrigNumFrames
100.0	100.0	4	51	mm	100.0	109	145
Frame#	Time	r_knee			r_shank_antsup			r_ankle			r_calc			r_5meta			r_toe			L_knee			L_shank_antsup			L_ankle			L_calc			L_5meta			L_toe			r_sh2			r_sh3			r_sh4			L_sh2			L_sh3			r_thigh1			r_thigh2			r_thigh3			r_thigh4			r_thigh5			L_thigh1			L_thigh2			L_thigh3			L_thigh4			r.ASIS			r.PSIS			L.ASIS			L.PSIS			C7			R_Shoulder			L_Shoulder			R_Sternum			L_Sternum			R_humerus			R_elbow_med			R_elbow_lat			R_forearm			R_wrist_radius			R_wrist_ulna			L_humerus			L_elbow_med			L_elbow_lat			L_forearm			L_wrist_radius			L_wrist_ulna			R_HJC			L_HJC			R_HJC_reg			L_HJC_reg			
		X1	Y1	Z1	X2	Y2	Z2	X3	Y3	Z3	X4	Y4	Z4	X5	Y5	Z5	X6	Y6	Z6	X7	Y7	Z7	X8	Y8	Z8	X9	Y9	Z9	X10	Y10	Z10	X11	Y11	Z11	X12	Y12	Z12	X13	Y13	Z13	X14	Y14	Z14	X15	Y15	Z15	X16	Y16	Z16	X17	Y17	Z17	X18	Y18	Z18	X19	Y19	Z19	X20	Y20	Z20	X21	Y21	Z21	X22	Y22	Z22	X23	Y23	Z23	X24	Y24	Z24	X25	Y25	Z25	X26	Y26	Z26	X27	Y27	Z27	X28	Y28	Z28	X29	Y29	Z29	X30	Y30	Z30	X31	Y31	Z31	X32	Y32	Z32	X33	Y33	Z33	X34	Y34	Z34	X35	Y35	Z35	X36	Y36	Z36	X37	Y37	Z37	X38	Y38	Z38	X39	Y39	Z39	X40	Y40	Z40	X41	Y41	Z41	X42	Y42	Z42	X43	Y43	Z43	X44	Y44	Z44	X45	Y45	Z45	X46	Y46	Z46	X47	Y47	Z47	X48	Y48	Z48	X49	Y49	Z49	X50	Y50	Z50	X51	Y51	Z51	

109	1.08000000	1213.55914	524.55008	-35.18152	1262.96042	468.93900	-57.14995	1265.79383	122.20050	-33.36574	1201.80463	73.04467	-53.75817	1385.79115	87.09035	-28.47082	1412.16941	125.32504	-91.17338	937.17927	493.69992	-290.07307	953.62923	393.35411	-280.72212	832.18324	101.73182	-248.71784	751.24763	68.96338	-221.85255	938.44642	41.63144	-264.27057	966.11532	62.29333	-198.89207	1265.70129	356.50392	-24.83142	1190.71036	469.57105	-15.33903	1193.47649	357.04089	-5.25560	870.00469	417.78261	-305.23955	846.58842	297.64459	-302.78242	1138.67174	833.68805	-8.13893	1182.22012	728.79488	-17.57729	1142.13411	687.61793	17.32722	1039.04042	789.78319	21.66938	1085.72158	682.67053	9.41329	1015.12084	747.41812	-352.16572	999.46341	615.59236	-316.54318	905.35099	765.33108	-321.76737	893.17449	627.36024	-298.11361	1101.16581	973.65946	-52.58351	907.49166	1002.52860	-111.45989	1091.20469	949.80509	-301.71650	893.22085	1006.80195	-211.29568	902.06105	1419.29054	-186.17347	1011.27871	1385.86609	-13.60188	971.38850	1384.30676	-366.94371	1042.06474	1385.92782	-173.37573	1046.12543	1385.57953	-214.94423	1032.07103	1257.56318	57.39700	980.27839	1040.95030	45.04410	1010.04720	1064.59501	106.17610	1106.46023	957.92418	100.26654	1166.06310	838.61011	98.74300	1154.26009	830.67341	131.80904	993.90579	1276.32848	-434.98872	918.67127	1046.58520	-422.71437	964.33800	1070.55675	-482.69780	1026.41103	971.17600	-465.45601	1061.92115	818.01428	-470.82292	1050.80295	818.81826	-503.27886	1026.75252	890.59297	-63.15541	1009.86333	879.47539	-268.63133	1039.79433	880.67361	-81.60947	1016.42499	887.67248	-245.10993	
110	1.09000000	1222.88483	521.60792	-34.46901	1275.38445	469.07945	-57.49693	1296.55338	122.47409	-34.50739	1234.98336	69.87000	-53.55202	1418.58521	93.63239	-31.87638	1441.42759	133.16406	-95.07933	941.27631	493.31576	-290.16079	956.81163	392.69487	-281.04155	832.51291	102.27448	-248.47202	751.47500	69.55228	-221.47505	938.44205	41.57626	-264.29185	966.28477	62.04113	-198.98571	1283.99209	356.84075	-25.35037	1203.56692	466.14500	-14.81007	1211.96325	353.76800	-5.11699	873.31830	418.08142	-304.96339	848.43518	298.19459	-302.42483	1149.40856	830.37783	-6.55415	1191.68895	724.84679	-15.98613	1150.93740	684.19326	18.75202	1049.14799	787.74247	22.30587	1094.03473	680.08684	10.66568	1022.10661	746.03011	-352.49576	1004.92851	614.39606	-316.83314	913.41481	765.75063	-319.82304	899.14721	627.72760	-296.98301	1113.91786	971.85721	-52.53742	919.72492	1000.83875	-109.57560	1101.28422	947.67970	-301.62062	904.38391	1005.05254	-209.28891	913.66890	1417.55568	-185.99963	1023.03593	1384.22103	-13.37525	983.22111	1382.22298	-366.87176	1053.83435	1384.08391	-173.31740	1057.82312	1383.65826	-214.87614	1042.79589	1256.00429	58.05774	990.17079	1039.58209	45.78354	1019.46178	1063.31733	107.22376	1115.16254	955.94288	102.35900	1173.86689	836.19034	101.74206	1161.79255	828.41637	134.76614	1006.63270	1274.25764	-434.85641	934.25729	1043.51493	-422.32370	979.46007	1068.19814	-482.42332	1042.97784	969.60445	-465.16973	1080.37926	816.98102	-470.57990	1069.11956	817.50345	-503.04107	1039.27969	888.85673	-62.32185	1020.27612	877.48792	-267.59837	1052.18708	878.79285	-80.85240	1027.06500	885.69466	-244.16115	
111	1.10000000	1232.37861	518.71312	-33.70931	1287.47221	468.94776	-57.82397	1324.57380	123.18354	-35.84332	1265.31736	67.56769	-53.83757	1448.11494	99.98559	-35.17548	1467.80020	140.54448	-98.75533	946.09768	492.78548	-290.05238	960.59966	391.86704	-281.19629	832.93074	102.94145	-248.21238	751.75268	70.30145	-221.04295	938.43300	41.52136	-264.29621	966.47404	61.75890	-199.04490	1301.22740	357.10870	-25.94134	1216.23467	462.90770	-14.31238	1229.54961	350.87827	-5.05502	877.32822	418.33464	-304.57458	850.78375	298.77805	-302.00292	1160.13134	827.11566	-4.99846	1201.30069	721.06685	-14.34792	1159.98121	680.96900	20.36127	1059.30142	785.71122	23.06031	1102.75512	677.50841	11.96668	1029.49393	744.54061	-352.75082	1011.02621	613.12109	-316.98248	921.89135	765.85083	-318.09294	905.73928	627.82900	-295.87871	1126.73946	969.92860	-52.54688	932.01588	999.04278	-107.73181	1111.43828	945.51103	-301.55797	915.59459	1003.19001	-207.31262	925.35583	1415.74655	-185.72264	1034.89802	1382.45679	-13.03680	995.16666	1380.07740	-366.70530	1065.66731	1382.17770	-173.13871	1069.58825	1381.65894	-214.68851	1053.68202	1254.34310	58.78773	1000.20425	1038.11372	46.65525	1029.05649	1061.94830	108.31394	1124.04507	953.87164	104.38381	1181.76775	833.65334	104.56069	1169.52467	826.07997	137.57498	1019.52022	1272.08630	-434.59083	949.84989	1040.43782	-421.85972	994.64600	1065.78991	-481.99985	1059.40744	967.91996	-464.64070	1098.70937	815.90551	-470.05160	1087.33370	816.11743	-502.53032	1051.88091	886.99703	-61.56307	1030.76699	875.43356	-266.62204	1064.65441	876.84460	-80.13421	1037.76260	883.63755	-243.22965	
112	1.11000000	1242.20516	515.96849	-32.99056	1299.29140	468.49402	-58.16457	1349.45503	123.92517	-37.30416	1292.26494	65.77168	-54.56204	1474.03079	105.55481	-38.27939	1491.04852	146.93104	-102.09461	951.69156	492.11433	-289.72385	965.02104	390.88740	-281.16231	833.46915	103.75712	-247.92391	752.10459	71.26512	-220.55889	938.42851	41.46957	-264.27955	966.71191	61.45412	-199.06080	1317.35414	357.15380	-26.60531	1228.72694	459.90606	-13.85475	1246.11321	348.31397	-5.03881	882.05966	418.55496	-304.04096	853.68853	299.40473	-301.49058	1170.99374	824.11680	-3.62250	1211.30810	717.68703	-12.81626	1169.57518	678.10599	21.97005	1069.74696	783.79518	23.90928	1112.15310	675.11465	13.21112	1037.35516	742.95973	-352.88271	1017.79614	611.77263	-316.95181	930.75334	765.65102	-316.59441	912.96127	627.67934	-294.76898	1139.58898	967.91050	-52.60824	944.33081	997.18966	-105.92739	1121.67964	943.31317	-301.53924	926.85987	1001.24575	-205.36572	937.14240	1413.90915	-185.33713	1046.87124	1380.60716	-12.58206	1007.22064	1377.92335	-366.42854	1077.57231	1380.25379	-172.83199	1081.44898	1379.63482	-214.37523	1064.75059	1252.60332	59.57476	1010.36483	1036.57809	47.65349	1038.82096	1060.51227	109.42027	1133.11278	951.73587	106.35773	1189.79340	831.03471	107.22080	1177.45444	823.69127	140.25238	1032.53231	1269.87326	-434.18203	965.44045	1037.39485	-421.30432	1009.88610	1063.38168	-481.41711	1075.73229	966.18936	-463.88470	1116.86337	814.79912	-469.25308	1105.43024	814.70519	-501.75256	1064.52575	885.05250	-60.87065	1041.32590	873.33746	-265.69544	1077.13480	874.87485	-79.45909	1048.51927	881.51918	-242.34095	
